<svg width="164" height="589" viewBox="0 0 164 589" fill="none" xmlns="http://www.w3.org/2000/svg">
<g filter="url(#filter0_d_7_240)">
<path d="M130.416 580.425L127.633 577.504L131.901 562.296L131.666 562.049L116.268 565.573L113.486 562.653L133.119 558.467L141.799 550.198L144.229 552.749L135.549 561.018L130.416 580.425Z" fill="white"/>
<path d="M98.3209 520.994C100.752 519.122 103.191 517.944 105.638 517.459C108.085 516.974 110.378 517.128 112.517 517.919C114.655 518.711 116.481 520.09 117.995 522.056C119.508 524.022 120.373 526.14 120.591 528.41C120.809 530.681 120.37 532.936 119.274 535.177C118.179 537.418 116.416 539.475 113.984 541.346C111.553 543.217 109.114 544.395 106.667 544.88C104.22 545.365 101.927 545.212 99.7885 544.42C97.6497 543.629 95.8237 542.25 94.3105 540.284C92.7973 538.318 91.9319 536.199 91.7142 533.929C91.4966 531.659 91.9354 529.403 93.0307 527.162C94.126 524.921 95.8894 522.865 98.3209 520.994ZM100.4 523.695C98.4039 525.232 96.9761 526.862 96.1169 528.587C95.2518 530.304 94.9026 532.001 95.0693 533.677C95.2302 535.346 95.8478 536.878 96.9221 538.274C97.9963 539.67 99.3222 540.663 100.9 541.253C102.472 541.836 104.201 541.933 106.088 541.544C107.97 541.147 109.909 540.181 111.905 538.644C113.901 537.108 115.332 535.481 116.197 533.764C117.056 532.039 117.405 530.342 117.245 528.674C117.078 526.998 116.457 525.462 115.383 524.066C114.309 522.67 112.986 521.681 111.414 521.098C109.837 520.508 108.107 520.411 106.225 520.807C104.338 521.196 102.396 522.159 100.4 523.695Z" fill="white"/>
<path d="M65.423 497.177L63.5934 494.167L80.0533 484.163C81.7527 483.131 83.5135 482.609 85.3356 482.599C87.1448 482.585 88.8739 483.069 90.523 484.05C92.1641 485.037 93.5772 486.505 94.7625 488.455C95.9478 490.405 96.6003 492.336 96.7199 494.247C96.8315 496.162 96.4672 497.924 95.6269 499.532C94.7737 501.136 93.4973 502.455 91.7979 503.488L75.338 513.492L73.5085 510.481L89.7256 500.625C90.9394 499.887 91.8575 498.964 92.4797 497.854C93.0938 496.75 93.3719 495.539 93.3141 494.222C93.2433 492.902 92.7874 491.55 91.9464 490.167C91.1053 488.783 90.1153 487.755 88.9763 487.085C87.8292 486.419 86.6264 486.108 85.368 486.153C84.0966 486.194 82.854 486.584 81.6401 487.321L65.423 497.177Z" fill="white"/>
<path d="M79.9939 463.66L53.7236 476.156L49.5013 467.279C48.525 465.227 48.0743 463.375 48.1491 461.725C48.2153 460.078 48.7051 458.65 49.6184 457.44C50.5317 456.229 51.7623 455.256 53.3101 454.52C54.8579 453.783 56.3809 453.447 57.8792 453.51C59.3774 453.573 60.7798 454.097 62.0862 455.08C63.3842 456.067 64.5172 457.578 65.4853 459.613L68.9022 466.796L66.0289 468.163L62.6608 461.082C61.9937 459.68 61.2515 458.649 60.4343 457.989C59.613 457.32 58.7345 456.973 57.7989 456.946C56.8507 456.915 55.8507 457.149 54.7989 457.649C53.747 458.15 52.9213 458.784 52.3217 459.551C51.7221 460.319 51.4139 461.236 51.3972 462.303C51.3719 463.374 51.6968 464.62 52.3721 466.039L55.0324 471.632L78.4807 460.478L79.9939 463.66ZM62.3108 456.907L71.0367 444.829L72.794 448.523L64.0193 460.499L62.3108 456.907Z" fill="white"/>
<path d="M30.2896 420.206L51.2496 404.877L51.1513 404.551L25.2127 403.34L24.1481 399.803L55.0833 401.647L56.1314 405.129L31.3541 423.742L30.2896 420.206Z" fill="white"/>
<path d="M29.3097 355.083C32.3252 354.517 35.0334 354.572 37.4344 355.248C39.8353 355.925 41.8097 357.1 43.3576 358.775C44.9055 360.45 45.9084 362.507 46.3663 364.945C46.8243 367.384 46.6359 369.664 45.8012 371.786C44.9665 373.909 43.5531 375.721 41.5612 377.222C39.5692 378.723 37.0655 379.757 34.0501 380.324C31.0346 380.89 28.3264 380.835 25.9254 380.159C23.5245 379.482 21.5501 378.306 20.0022 376.632C18.4543 374.957 17.4514 372.9 16.9935 370.462C16.5355 368.023 16.7239 365.743 17.5586 363.62C18.3934 361.498 19.8067 359.686 21.7986 358.185C23.7906 356.683 26.2943 355.649 29.3097 355.083ZM29.939 358.434C27.4633 358.899 25.4517 359.705 23.9041 360.853C22.3547 361.992 21.2746 363.346 20.6636 364.916C20.051 366.476 19.9072 368.122 20.2323 369.853C20.5574 371.584 21.2894 373.07 22.4282 374.312C23.5652 375.543 25.0631 376.413 26.9218 376.922C28.7788 377.421 30.9452 377.438 33.4208 376.973C35.8965 376.508 37.909 375.706 39.4583 374.567C41.006 373.419 42.0861 372.065 42.6988 370.505C43.3097 368.935 43.4526 367.285 43.1275 365.553C42.8024 363.822 42.0713 362.341 40.9343 361.109C39.7955 359.868 38.2976 358.998 36.4406 358.499C34.5818 357.99 32.4146 357.969 29.939 358.434Z" fill="white"/>
<path d="M15.5579 339.481L12.4434 339.737L10.6565 317.992L13.771 317.736L14.5202 326.853L40.3989 324.727L40.6874 328.238L14.8087 330.364L15.5579 339.481Z" fill="white"/>
<path d="M39.0359 300.26L9.94666 299.945L10.1368 282.39L13.2616 282.424L13.1096 296.457L22.9386 296.563L23.0807 283.439L26.2055 283.473L26.0634 296.597L35.9492 296.704L36.1036 282.444L39.2284 282.477L39.0359 300.26Z" fill="white"/>
<path d="M12.986 242.563L13.7044 238.42L39.1864 232.805L39.2446 232.469L17.1414 218.602L17.8599 214.459L46.5229 219.43L45.9598 222.677L24.1826 218.901L24.1341 219.181L44.3578 231.914L43.8141 235.05L20.4835 240.23L20.4349 240.51L42.2121 244.287L41.649 247.534L12.986 242.563Z" fill="white"/>
<path d="M51.0043 200.2L49.9617 203.743L25.0697 185.283L26.0962 181.794L57.0194 179.76L55.9768 183.303L30.0301 184.729L29.9659 184.947L51.0043 200.2ZM40.4879 195.684L44.6904 181.403L47.6883 182.285L43.4857 196.566L40.4879 195.684Z" fill="white"/>
<path d="M37.3585 156.925L34.4625 155.751L42.6608 135.532L45.5568 136.706L42.1195 145.183L66.1826 154.94L64.859 158.205L40.7958 148.448L37.3585 156.925Z" fill="white"/>
<path d="M52.2004 121.861L49.4302 120.415L59.5271 101.074L62.2974 102.52L58.064 110.629L81.0821 122.646L79.4519 125.769L56.4338 113.752L52.2004 121.861Z" fill="white"/>
<path d="M92.9904 101.23L68.5609 85.4347L78.0934 70.6911L80.7177 72.3879L73.0979 84.1732L81.3524 89.5101L88.4786 78.4882L91.1029 80.185L83.9766 91.2069L92.2788 96.5747L100.022 84.5985L102.646 86.2952L92.9904 101.23Z" fill="white"/>
<path d="M111.514 73.5731L88.6533 55.5818L94.7324 47.8575C96.138 46.0715 97.5968 44.8457 99.1089 44.1799C100.614 43.5083 102.111 43.313 103.601 43.5939C105.091 43.8749 106.51 44.5454 107.857 45.6054C109.203 46.6655 110.181 47.8808 110.79 49.2514C111.398 50.6219 111.552 52.1108 111.251 53.7178C110.943 55.3191 110.092 57.0052 108.698 58.7763L103.779 65.0272L101.278 63.0594L106.127 56.8978C107.088 55.6774 107.682 54.5546 107.911 53.5293C108.145 52.4966 108.067 51.5551 107.675 50.7049C107.282 49.8413 106.628 49.0494 105.713 48.329C104.798 47.6087 103.863 47.1502 102.909 46.9537C101.955 46.7573 100.996 46.8884 100.033 47.3472C99.0616 47.8001 98.09 48.6442 97.1178 49.8795L93.2876 54.7462L113.692 70.8048L111.514 73.5731ZM109.713 54.7306L124.41 57.1869L121.88 60.4016L107.253 57.8561L109.713 54.7306Z" fill="white"/>
<path d="M129.214 19.4187C128.056 18.5475 126.77 18.2753 125.358 18.6021C123.945 18.9289 122.631 19.729 121.414 21.0025C120.524 21.9336 119.896 22.8922 119.53 23.8784C119.17 24.8578 119.068 25.7945 119.222 26.6885C119.383 27.5756 119.799 28.3398 120.47 28.9809C121.031 29.5174 121.641 29.8451 122.3 29.9641C122.959 30.0697 123.625 30.0378 124.298 29.8685C124.963 29.6926 125.604 29.4537 126.22 29.1517C126.829 28.8432 127.372 28.5428 127.847 28.2507L130.464 26.6642C131.131 26.2539 131.912 25.8342 132.806 25.4054C133.707 24.9696 134.671 24.653 135.698 24.4556C136.725 24.2447 137.77 24.2611 138.834 24.5049C139.898 24.7486 140.922 25.3415 141.908 26.2836C143.045 27.3697 143.787 28.6488 144.136 30.1211C144.49 31.5866 144.395 33.146 143.85 34.7993C143.311 36.4458 142.27 38.077 140.726 39.6927C139.287 41.1989 137.797 42.2709 136.258 42.9087C134.725 43.5396 133.223 43.7546 131.752 43.5536C130.287 43.3458 128.94 42.7334 127.711 41.7164L130.224 39.0874C131.083 39.7778 131.996 40.1389 132.961 40.1705C133.926 40.1888 134.878 39.9595 135.819 39.4827C136.758 38.9925 137.628 38.3298 138.426 37.4945C139.355 36.5223 140.031 35.4989 140.456 34.4243C140.873 33.3432 141.014 32.3052 140.877 31.3103C140.734 30.3089 140.279 29.4418 139.512 28.7091C138.814 28.0418 138.059 27.6939 137.248 27.6654C136.437 27.637 135.59 27.8103 134.708 28.1853C133.826 28.5603 132.928 29.0194 132.017 29.5625L128.804 31.4439C126.762 32.6357 124.844 33.2921 123.052 33.4132C121.26 33.5342 119.655 32.9177 118.238 31.5634C117.06 30.4381 116.337 29.1384 116.069 27.6643C115.801 26.1768 115.941 24.6599 116.488 23.1137C117.036 21.554 117.951 20.1033 119.233 18.7614C120.528 17.4058 121.923 16.4331 123.416 15.8432C124.903 15.2468 126.358 15.0396 127.783 15.2216C129.213 15.3967 130.475 15.9742 131.569 16.954L129.214 19.4187Z" fill="white"/>
</g>
<defs>
<filter id="filter0_d_7_240" x="5.94666" y="11.3672" width="149.533" height="577.057" filterUnits="userSpaceOnUse" color-interpolation-filters="sRGB">
<feFlood flood-opacity="0" result="BackgroundImageFix"/>
<feColorMatrix in="SourceAlpha" type="matrix" values="0 0 0 0 0 0 0 0 0 0 0 0 0 0 0 0 0 0 127 0" result="hardAlpha"/>
<feOffset dy="4"/>
<feGaussianBlur stdDeviation="2"/>
<feComposite in2="hardAlpha" operator="out"/>
<feColorMatrix type="matrix" values="0 0 0 0 0 0 0 0 0 0 0 0 0 0 0 0 0 0 0.2 0"/>
<feBlend mode="normal" in2="BackgroundImageFix" result="effect1_dropShadow_7_240"/>
<feBlend mode="normal" in="SourceGraphic" in2="effect1_dropShadow_7_240" result="shape"/>
</filter>
</defs>
</svg>
